<svg width="174" height="34" viewBox="0 0 174 34" fill="none" xmlns="http://www.w3.org/2000/svg">
<g clip-path="url(#clip0_1_189)">
<path d="M140.004 9.02785L139.316 9.53367C138.992 9.12222 138.584 8.79167 138.122 8.56614C137.661 8.34061 137.156 8.22583 136.647 8.23013C135.726 8.23524 134.844 8.62018 134.193 9.30139C133.542 9.98261 133.174 10.9051 133.169 11.8685C133.174 12.8318 133.542 13.7542 134.193 14.4355C134.844 15.1167 135.726 15.5017 136.647 15.5068C137.158 15.5134 137.663 15.3987 138.126 15.1712C138.588 14.9437 138.995 14.6094 139.316 14.1935L140.004 14.7091C139.602 15.2265 139.093 15.6422 138.516 15.9251C137.933 16.2061 137.298 16.3521 136.656 16.3531C136.084 16.3663 135.515 16.2556 134.985 16.0279C134.456 15.8003 133.977 15.4605 133.578 15.0301C133.172 14.6208 132.848 14.1297 132.627 13.5864C132.406 13.0432 132.292 12.4589 132.292 11.8685C132.292 11.278 132.406 10.6937 132.627 10.1504C132.848 9.60714 133.172 9.11615 133.578 8.7068C133.974 8.27568 134.451 7.93545 134.98 7.70768C135.508 7.47991 136.076 7.3696 136.647 7.38378C137.29 7.38347 137.926 7.53297 138.507 7.8215C139.087 8.0995 139.599 8.51208 140.004 9.02785Z" fill="#333333"/>
<path d="M145.351 7.53938V15.4484H150.084V16.2559H144.504V7.50049L145.351 7.53938Z" fill="#333333"/>
<path d="M161.326 16.2363L160.34 13.9307H155.598L154.603 16.2363H153.673L157.393 7.48096H158.509L162.228 16.2363H161.326ZM155.923 13.1525H160.034L157.988 8.39541L155.923 13.1525Z" fill="#333333"/>
<path d="M173.461 13.9015C173.467 14.2147 173.409 14.5256 173.292 14.8139C173.175 15.1022 173.002 15.3615 172.782 15.5748C172.156 16.068 171.378 16.3034 170.597 16.2363H166.543V7.48096H170.262C170.971 7.43555 171.675 7.62997 172.271 8.03547C172.508 8.22225 172.697 8.46736 172.822 8.74906C172.947 9.03075 173.004 9.3403 172.987 9.65033C172.994 10.1096 172.846 10.5569 172.569 10.913C172.292 11.2691 171.903 11.511 171.471 11.596C172.033 11.6588 172.552 11.9358 172.931 12.3742C173.292 12.7912 173.482 13.3395 173.461 13.9015ZM167.38 8.28842V11.3625H170.076C170.614 11.4001 171.149 11.2643 171.611 10.9734C171.781 10.8441 171.918 10.6722 172.009 10.4734C172.1 10.2746 172.142 10.0552 172.131 9.83516C172.143 9.61223 172.101 9.38985 172.01 9.18785C171.919 8.98584 171.782 8.8105 171.611 8.67751C171.149 8.38658 170.614 8.25079 170.076 8.28842H167.38ZM172.029 15.0106C172.195 14.859 172.328 14.6721 172.419 14.4623C172.51 14.2526 172.557 14.0249 172.557 13.7945C172.557 13.5642 172.51 13.3365 172.419 13.1268C172.328 12.9171 172.195 12.7301 172.029 12.5785C171.551 12.2396 170.978 12.0786 170.402 12.1213H167.38V15.4581H170.411C170.986 15.5037 171.559 15.3461 172.038 15.0106H172.029Z" fill="#333333"/>
<path d="M9.60573 7.62693V10.0492C8.49276 9.77023 7.35557 9.61052 6.21167 9.57256C3.99854 9.57256 2.71529 11.8879 2.71529 17.0924V18.9019C2.71529 22.3943 2.71529 24.515 2.71529 24.515H0.316162C0.316162 24.515 0.316162 20.6919 0.316162 19.2424V18.9019C0.316162 18.9019 0.316162 18.7073 0.316162 18.4349V7.61719H2.67811V11.9559C4.53789 9.35849 7.04855 7.61719 9.27098 7.61719L9.60573 7.62693Z" fill="#333333"/>
<path d="M2.74324 24.836H0.334861C0.254216 24.8336 0.177486 24.7989 0.120438 24.7392C0.0633887 24.6796 0.0303213 24.5993 0.0279823 24.515C0.0279823 24.515 0.0279823 20.6918 0.0279823 19.2423V18.9018C0.0279823 18.9018 0.0279823 18.6878 0.0279823 18.4154V7.62687C0.0266909 7.58434 0.0337339 7.54198 0.0486982 7.50242C0.0636624 7.46286 0.0862326 7.42693 0.114989 7.39684C0.143745 7.36676 0.178086 7.34315 0.215901 7.32749C0.253715 7.31184 0.294214 7.30447 0.334861 7.30582H2.68745C2.72809 7.30447 2.76859 7.31184 2.80641 7.32749C2.84422 7.34315 2.87856 7.36676 2.90732 7.39684C2.93608 7.42693 2.95865 7.46286 2.97361 7.50242C2.98857 7.54198 2.99562 7.58434 2.99433 7.62687V11.0317C4.8541 8.71642 7.20672 7.30582 9.28037 7.30582H9.61512C9.6542 7.30708 9.69265 7.31638 9.72829 7.33319C9.76393 7.35001 9.79607 7.37404 9.82285 7.40385C9.84962 7.43367 9.87055 7.46866 9.88437 7.50693C9.89819 7.54519 9.90462 7.58598 9.90338 7.62687V10.0492C9.90486 10.0961 9.89551 10.1427 9.87608 10.1851C9.85666 10.2274 9.82773 10.2642 9.7918 10.2924C9.75758 10.3228 9.71723 10.3448 9.67375 10.3566C9.63027 10.3684 9.58476 10.3697 9.54071 10.3605L9.13156 10.2826C8.17053 10.0481 7.18901 9.91768 6.20245 9.89349C4.08231 9.89349 3.01294 12.3158 3.01294 17.0924V18.9018C3.01294 22.3553 3.01294 24.4858 3.01294 24.515C3.01378 24.5981 2.98376 24.6783 2.92923 24.7387C2.87764 24.7894 2.81298 24.8233 2.74324 24.836ZM0.64174 24.1939H2.43642C2.43642 23.474 2.43642 21.5868 2.43642 18.9018V17.0924C2.38412 15.3751 2.59764 13.6602 3.06873 12.0142L2.97571 12.1504C2.93583 12.2033 2.8819 12.2427 2.82065 12.2634C2.75941 12.2842 2.69361 12.2855 2.63166 12.2672C2.56874 12.2463 2.51399 12.2047 2.47546 12.1486C2.43694 12.0925 2.4167 12.0249 2.4178 11.9559V7.93812H0.669607V18.4446C0.669607 18.7364 0.669607 18.931 0.669607 18.931V19.2131C0.613814 20.4389 0.632441 23.2503 0.64174 24.1939ZM6.22106 9.25146C7.24778 9.27951 8.26934 9.41308 9.27107 9.65029V7.93812C7.97932 7.99413 6.73426 8.45891 5.70033 9.27093C5.87026 9.25331 6.04106 9.2468 6.21176 9.25146H6.22106Z" fill="#333333"/>
<path d="M28.2406 16.8589C27.1991 19.4089 25.5109 21.6123 23.3587 23.2309L23.1634 23.3573C21.7422 24.3045 20.0921 24.8077 18.407 24.8077C16.7219 24.8077 15.0719 24.3045 13.6507 23.3573C12.6342 22.6231 11.8102 21.6335 11.2545 20.4793C10.6989 19.3252 10.4292 18.0434 10.4704 16.7519C10.57 14.4297 11.4487 12.2187 12.9521 10.5071C14.4554 8.79553 16.4873 7.69301 18.6906 7.39335C19.3092 7.33226 19.9319 7.33226 20.5504 7.39335C21.2754 7.47519 21.9824 7.68229 22.6427 8.00623L22.7822 8.07434L22.9495 8.17165C23.1398 8.28244 23.323 8.40592 23.4981 8.54133C23.8194 8.80357 24.1042 9.11129 24.3444 9.45572C24.9273 10.3123 25.2659 11.3243 25.3207 12.3742V12.4326C25.3207 12.7439 25.3207 14.0572 23.461 14.0572H12.4697C12.4129 14.512 12.3849 14.9702 12.386 15.4288C12.386 19.5536 15.8266 22.7833 20.1599 22.7833C23.8794 22.7833 26.232 20.4778 27.9802 16.7811L28.2406 16.8589ZM12.4976 13.9405H21.6012C21.8478 13.9405 22.0843 13.838 22.2587 13.6555C22.4331 13.4731 22.5311 13.2256 22.5311 12.9676C22.5601 11.9141 22.3159 10.8719 21.8244 9.95187C21.4896 9.36991 21.0022 8.90066 20.4202 8.5997H20.3366L20.0855 8.49264C19.5741 8.29302 19.0319 8.19409 18.4861 8.20081C17.2894 8.14421 16.1071 8.49202 15.1141 9.1928C14.121 9.89359 13.3699 10.9101 12.9718 12.0921C12.9668 12.1079 12.9668 12.1249 12.9718 12.1407C12.8883 12.359 12.82 12.5834 12.7673 12.812C12.6617 13.1269 12.5899 13.4532 12.5534 13.7848C12.5334 13.8262 12.5148 13.8684 12.4976 13.9112V13.9405Z" fill="#333333"/>
<path d="M18.5233 25.1279C16.7354 25.1631 14.9779 24.6416 13.474 23.6297C12.4202 22.8605 11.5658 21.8291 10.988 20.6285C10.4101 19.4278 10.1268 18.0956 10.1636 16.7519C10.2597 14.3433 11.1646 12.0474 12.7192 10.268C14.2738 8.4886 16.3783 7.33979 18.6627 7.02367C19.2811 6.95956 19.9041 6.95956 20.5225 7.02367C21.277 7.10272 22.013 7.31662 22.6984 7.65603L22.8472 7.73387L23.0332 7.84087C23.2326 7.95333 23.4224 8.08354 23.6005 8.23002C23.9541 8.50512 24.2674 8.83286 24.5304 9.20284C24.5304 9.20284 24.5303 9.26121 24.5768 9.27094C25.1781 10.1811 25.5229 11.2496 25.5718 12.3548V12.4326C25.5843 12.6753 25.5504 12.9181 25.4722 13.147C25.394 13.3758 25.2729 13.586 25.1161 13.7654C24.8902 13.9855 24.6233 14.1544 24.3321 14.2615C24.0409 14.3686 23.7317 14.4117 23.4238 14.3879H12.7393C12.7393 14.7284 12.6928 15.0786 12.6928 15.4288C12.6928 19.3785 15.966 22.4624 20.1319 22.4624C23.4144 22.4624 25.8136 20.614 27.6826 16.6254C27.7049 16.57 27.7424 16.5228 27.7905 16.4899C27.8385 16.457 27.8949 16.4398 27.9523 16.4406H28.222C28.2737 16.4404 28.3246 16.4539 28.3701 16.4798C28.4155 16.5057 28.4539 16.5432 28.4817 16.5889C28.5096 16.6345 28.5259 16.6867 28.5293 16.7408C28.5326 16.7948 28.5229 16.8488 28.5009 16.8978C27.4328 19.4963 25.7101 21.7424 23.5167 23.3962L23.3029 23.5422C21.887 24.5371 20.2285 25.0873 18.5233 25.1279ZM13.2322 10.6621C11.708 12.2956 10.8281 14.4699 10.768 16.7519C10.7327 17.9909 10.9931 19.2197 11.5257 20.3271C12.0582 21.4345 12.846 22.3857 13.818 23.0947C15.191 24.0034 16.7823 24.4859 18.407 24.4859C20.0317 24.4859 21.623 24.0034 22.996 23.0947L23.1913 22.9584C23.6604 22.6354 24.1021 22.2709 24.5117 21.8689C23.2191 22.7596 21.698 23.2177 20.1506 23.1822C15.6313 23.1822 12.0791 19.8065 12.0791 15.5067C12.0784 15.0383 12.1063 14.5704 12.1628 14.1058C12.1562 14.0672 12.1562 14.0277 12.1628 13.9891C12.1537 13.9475 12.1537 13.9042 12.1628 13.8626V13.5999C12.197 13.2679 12.2688 12.9414 12.3767 12.6271C12.4418 12.3839 12.5069 12.1505 12.5906 11.9267C12.765 11.4845 12.9799 11.061 13.2322 10.6621ZM22.5311 13.8237H23.461C23.6848 13.8446 23.9104 13.8183 24.1244 13.7464C24.3384 13.6746 24.5365 13.5587 24.707 13.4054C24.9048 13.1657 25.008 12.856 24.9953 12.5396C24.9908 12.5106 24.9908 12.481 24.9953 12.452C24.9392 11.4551 24.6171 10.4946 24.0654 9.67951C23.8455 9.34746 23.5753 9.05502 23.2657 8.81368C23.1025 8.68565 22.9317 8.56869 22.7542 8.46348L22.5869 8.3759L22.4567 8.3078C21.8264 7.99696 21.1505 7.79965 20.4574 7.72413H20.3923C19.8323 7.67576 19.2693 7.67576 18.7092 7.72413L18.2164 7.80197C18.8861 7.76582 19.556 7.8683 20.1877 8.10355L20.4574 8.22028L20.5597 8.27865C21.1908 8.60722 21.7197 9.11667 22.0847 9.74761C22.613 10.7183 22.8766 11.8219 22.8472 12.9384C22.8445 13.2667 22.7252 13.5823 22.5125 13.8237H22.5311ZM12.8602 13.5902H21.6198C21.7913 13.5866 21.9547 13.5134 22.0754 13.3859C22.1927 13.2652 22.2596 13.1008 22.2614 12.9287C22.2822 11.9316 22.0547 10.9459 21.6012 10.0686C21.2875 9.5315 20.8366 9.09685 20.2993 8.81368H20.225L19.9925 8.70669C19.5156 8.52658 19.0116 8.43759 18.5046 8.44401C17.3734 8.37749 16.2521 8.69601 15.3083 9.35187C14.3646 10.0077 13.6493 10.9657 13.2694 12.0823C13.1857 12.3353 13.1206 12.5299 13.0648 12.7342C13.0692 12.7501 13.0692 12.7669 13.0648 12.7828C12.9678 13.0445 12.8931 13.3147 12.8417 13.5902H12.8602Z" fill="#333333"/>
<path d="M43.4351 18.4252C42.4273 20.4216 40.9525 22.1184 39.1484 23.3574C37.837 24.2673 36.3047 24.7668 34.7314 24.7971C33.076 24.836 31.4504 24.3326 30.0819 23.3574C29.0914 22.6016 28.293 21.6035 27.7564 20.4503C27.2199 19.2971 26.9615 18.024 27.004 16.7422C27.004 11.8781 31.4675 7.34475 36.1541 7.34475C37.8021 7.26537 39.4312 7.73918 40.8036 8.69698L39.2134 10.9539C38.2836 10.1757 37.3537 8.03547 34.7779 8.03547C31.5977 8.03547 29.0683 10.6134 29.0683 15.1857C29.0305 16.206 29.1946 17.2234 29.5503 18.1743C29.9059 19.1252 30.4455 19.9889 31.1352 20.7114C31.8249 21.4338 32.6499 21.9994 33.5584 22.3727C34.4668 22.746 35.4392 22.919 36.4145 22.8807C39.4273 22.8807 41.5196 21.3339 43.119 18.2792C43.1841 18.143 43.2771 18.1042 43.3422 18.1431C43.3742 18.1416 43.4058 18.151 43.4323 18.1699C43.4588 18.1888 43.4788 18.2161 43.4893 18.2478C43.4997 18.2795 43.5001 18.3139 43.4903 18.3459C43.4806 18.3779 43.4612 18.4057 43.4351 18.4252Z" fill="#333333"/>
<path d="M34.7405 25.1181C33.0286 25.1505 31.3491 24.6271 29.933 23.62C28.9047 22.8323 28.0751 21.7944 27.5162 20.5961C26.9572 19.3977 26.6856 18.075 26.7249 16.7422C26.7249 11.7516 31.3186 7.01401 36.1819 7.01401C37.9109 6.92911 39.6199 7.43066 41.0545 8.44402C41.1137 8.49698 41.1522 8.57093 41.1625 8.65172C41.1728 8.73251 41.1541 8.81446 41.1103 8.8818L39.5202 11.1387C39.468 11.2043 39.3957 11.249 39.3156 11.2652C39.2759 11.2713 39.2354 11.2684 39.1969 11.2566C39.1584 11.2449 39.1227 11.2246 39.0924 11.1971C38.7915 10.9431 38.5144 10.6597 38.2648 10.3508C37.8782 9.7683 37.3664 9.28883 36.7704 8.95091C36.1745 8.613 35.5111 8.42607 34.8335 8.40513C31.6068 8.40513 29.4309 11.1485 29.4309 15.2149C29.3872 16.1945 29.5394 17.1729 29.8776 18.0875C30.2158 19.0022 30.7326 19.8331 31.395 20.527C32.0574 21.2209 32.8509 21.7627 33.7248 22.1177C34.5986 22.4727 35.5337 22.6331 36.4701 22.5888C39.2598 22.5888 41.3241 21.1782 42.9142 18.1527C42.9735 18.0245 43.0763 17.924 43.2025 17.8706C43.3102 17.8271 43.4295 17.8271 43.5372 17.8706C43.6492 17.9403 43.7322 18.0514 43.7697 18.1819C43.7828 18.2471 43.783 18.3145 43.7702 18.3797C43.7574 18.445 43.7319 18.5068 43.6954 18.5614C42.667 20.602 41.1599 22.336 39.3156 23.6005C37.9575 24.5469 36.3717 25.0729 34.7405 25.1181ZM29.9795 10.5259C28.3554 12.1524 27.407 14.3814 27.3386 16.7325C27.292 17.9634 27.5367 19.1872 28.051 20.2954C28.5652 21.4036 29.333 22.3618 30.2864 23.0849C31.5997 24.0142 33.1553 24.4967 34.7405 24.4664C36.2545 24.4334 37.7283 23.9509 38.9901 23.0752C39.2824 22.8797 39.5648 22.6687 39.8363 22.4429C38.7914 22.9857 37.6365 23.256 36.4701 23.2309C35.4563 23.2619 34.4471 23.0757 33.5046 22.6837C32.5621 22.2917 31.7061 21.7021 30.9894 20.9514C30.2726 20.2006 29.7102 19.3045 29.3367 18.318C28.9631 17.3315 28.7863 16.2755 28.8172 15.2149C28.7771 13.5719 29.18 11.9503 29.9795 10.5356V10.5259ZM34.9916 7.7533C35.7246 7.80783 36.4373 8.02939 37.0799 8.40246C37.7224 8.77552 38.2792 9.29109 38.7112 9.91299C38.8879 10.127 39.0552 10.3119 39.2133 10.4772L40.4221 8.75533C39.1341 7.97416 37.6601 7.59286 36.1726 7.65604C35.7768 7.65833 35.3819 7.6941 34.9916 7.76304V7.7533Z" fill="#333333"/>
<path d="M60.9912 16.8687C59.9463 19.4138 58.2586 21.6132 56.1093 23.2309L55.9048 23.3671C54.4816 24.3087 52.8323 24.8085 51.1484 24.8085C49.4645 24.8085 47.8152 24.3087 46.392 23.3671C45.3784 22.6276 44.557 21.6355 44.0017 20.4806C43.4465 19.3256 43.175 18.0441 43.2118 16.7519C43.2118 11.9851 47.2475 7.82145 51.4413 7.39341C52.0412 7.33224 52.6454 7.33224 53.2453 7.39341C53.9677 7.46676 54.6726 7.67083 55.3283 7.99655L55.477 8.07439L55.6444 8.17171C55.8373 8.27788 56.0209 8.40159 56.193 8.54139C56.5156 8.7952 56.798 9.10049 57.0299 9.4461C57.6092 10.3046 57.9475 11.3155 58.0063 12.3646V12.4229C58.0063 12.744 58.0063 14.0475 56.1466 14.0475H45.2111C45.1621 14.4997 45.1372 14.9544 45.1367 15.4095C45.1367 19.544 48.5679 22.764 52.9012 22.764C56.6208 22.764 58.9827 20.4681 60.7216 16.7714L60.9912 16.8687ZM45.2389 13.9503H54.3518C54.5985 13.9503 54.835 13.8477 55.0094 13.6653C55.1838 13.4829 55.2817 13.2354 55.2817 12.9774C55.3119 11.9281 55.071 10.8896 54.5843 9.9714C54.2467 9.39183 53.7602 8.92325 53.1802 8.61917H53.0872L52.8361 8.50244C52.3262 8.31083 51.7878 8.21533 51.246 8.22034C50.0478 8.16161 48.8634 8.50844 47.8685 9.20937C46.8736 9.9103 46.121 10.928 45.7225 12.1116V12.1602C45.6481 12.3743 45.583 12.598 45.5179 12.8218C45.4175 13.1383 45.3459 13.464 45.304 13.7946C45.2668 13.7459 45.2575 13.8335 45.2389 13.921V13.9503Z" fill="#333333"/>
<path d="M51.2369 25.1279C49.4512 25.1695 47.6949 24.6474 46.1969 23.6297C45.1396 22.8635 44.282 21.833 43.7023 20.6318C43.1225 19.4306 42.8389 18.0969 42.8772 16.7519C42.9751 14.3439 43.8807 12.049 45.4349 10.27C46.9891 8.49101 49.0928 7.34163 51.3764 7.02368C51.995 6.9646 52.6175 6.9646 53.2362 7.02368C53.9943 7.10546 54.7334 7.32266 55.4214 7.66577L55.5701 7.74362L55.7468 7.84087C55.9472 7.95668 56.1399 8.08672 56.3233 8.23003C56.6787 8.50303 56.9923 8.83107 57.2532 9.20284V9.27095C57.8593 10.1756 58.2076 11.2415 58.2575 12.345V12.4326C58.2721 12.6732 58.2401 12.9144 58.1634 13.1417C58.0867 13.3691 57.9669 13.5779 57.8112 13.7556C57.5859 13.9767 57.3191 14.1463 57.0277 14.2535C56.7363 14.3607 56.4268 14.4032 56.1188 14.3782H45.4809C45.4809 14.7187 45.4809 15.0689 45.4809 15.4191C45.4809 19.3688 48.7634 22.4624 52.92 22.4624C56.1932 22.4624 58.5923 20.614 60.4613 16.6255C60.4883 16.5726 60.5285 16.5283 60.5776 16.4974C60.6268 16.4666 60.683 16.4503 60.7403 16.4503H61.01C61.0601 16.4513 61.1091 16.4652 61.1529 16.4907C61.1966 16.5161 61.2338 16.5523 61.2611 16.5962C61.2839 16.6429 61.2958 16.6946 61.2958 16.7471C61.2958 16.7995 61.2839 16.8511 61.2611 16.8978C60.1939 19.5023 58.4673 21.7526 56.2675 23.406L56.0537 23.5422C54.6305 24.5513 52.956 25.1026 51.2369 25.1279ZM45.9551 10.6621C44.4294 12.2945 43.5492 14.4695 43.4909 16.7519C43.4592 17.997 43.726 19.2306 44.2669 20.3402C44.8077 21.4498 45.6055 22.4001 46.5874 23.1044C47.9612 24.0109 49.5522 24.4921 51.1764 24.4921C52.8007 24.4921 54.3917 24.0109 55.7654 23.1044L55.9607 22.9779C56.4282 22.649 56.8698 22.2814 57.2811 21.8786C55.9875 22.7671 54.4671 23.225 52.92 23.192C48.3914 23.192 44.8486 19.826 44.8486 15.5164C44.8481 15.0481 44.876 14.5802 44.9322 14.1156C44.9238 14.0771 44.9238 14.0373 44.9322 13.9988C44.9228 13.9605 44.9228 13.9204 44.9322 13.8821V13.6194C44.953 13.2852 45.0253 12.9567 45.1461 12.6466C45.2093 12.4126 45.2838 12.182 45.3693 11.9559C45.5273 11.5021 45.7332 11.0682 45.983 10.6621H45.9551ZM55.254 13.8237H56.1839C56.4093 13.847 56.637 13.822 56.8528 13.75C57.0687 13.6781 57.2682 13.5609 57.4392 13.4054C57.539 13.2881 57.6151 13.151 57.6631 13.0022C57.711 12.8534 57.7297 12.6961 57.7182 12.5396V12.4618C57.6621 11.4648 57.3399 10.5043 56.7883 9.68925C56.5634 9.35863 56.2941 9.06372 55.9886 8.81369C55.8282 8.68438 55.6571 8.57045 55.4772 8.47323L55.3098 8.37591L55.1889 8.30781C54.5596 7.99597 53.8829 7.80175 53.1896 7.73388H53.1246C52.5645 7.68551 52.0015 7.68551 51.4414 7.73388L50.9393 7.80198C51.6088 7.77077 52.2778 7.87311 52.9107 8.10355L53.1896 8.23003H53.292C53.9197 8.5601 54.4452 9.06935 54.8077 9.69893C55.3351 10.6739 55.6016 11.7795 55.5794 12.8995C55.5875 13.238 55.4748 13.5675 55.2633 13.8237H55.254ZM45.5831 13.5999H54.3427C54.5131 13.6 54.6767 13.5302 54.7984 13.4054C54.9112 13.2785 54.9742 13.1118 54.975 12.9384C55.0045 11.9446 54.7798 10.9606 54.3241 10.0881C54.0134 9.54605 53.5619 9.10749 53.0222 8.82343H52.9479L52.7061 8.72611C52.2343 8.53801 51.7325 8.4456 51.2276 8.45375C50.0952 8.38791 48.973 8.70782 48.0292 9.36553C47.0853 10.0233 46.3706 10.9833 45.9923 12.1018C45.9086 12.345 45.8435 12.5493 45.7878 12.7536C45.698 13.0289 45.6326 13.3122 45.5925 13.5999H45.5831Z" fill="#333333"/>
<path d="M77.0131 15.2538C76.9746 17.7851 75.9945 20.2009 74.2808 21.9883C72.567 23.7757 70.2548 24.7938 67.8352 24.8264C66.5871 24.8337 65.3591 24.4982 64.2737 23.8535V33.7179H61.8281V7.6853H64.2551V10.3897C64.9833 9.46548 65.8937 8.71668 66.9241 8.19451C67.9544 7.67235 69.0804 7.38914 70.225 7.36426C73.9073 7.36426 77.0131 10.6232 77.0131 15.2538ZM74.6419 16.4698C74.6419 12.5785 72.652 8.47328 68.6721 8.47328C67.8289 8.50204 67.001 8.71715 66.243 9.10445C65.4849 9.49176 64.8138 10.0425 64.2737 10.7205V21.4215C64.9912 22.1904 65.8119 22.8458 66.71 23.3671C67.4647 23.8167 68.3152 24.0608 69.1835 24.0773C70.1271 24.0982 71.0586 23.8529 71.8802 23.3671C73.6563 22.2873 74.6419 19.9331 74.6419 16.4698Z" fill="#333333"/>
<path d="M64.2553 34H61.8376C61.7563 34 61.6782 33.9662 61.6206 33.906C61.5631 33.8458 61.5308 33.7641 61.5308 33.679V7.68529C61.5308 7.60015 61.5631 7.51844 61.6206 7.45823C61.6782 7.39803 61.7563 7.36424 61.8376 7.36424H64.2553C64.3367 7.36424 64.4148 7.39803 64.4723 7.45823C64.5299 7.51844 64.5622 7.60015 64.5622 7.68529V9.63093C65.3005 8.84004 66.1808 8.20947 67.1526 7.77542C68.1244 7.34137 69.1686 7.11235 70.2252 7.10156C74.1958 7.10156 77.3017 10.7107 77.3017 15.3122C77.2942 17.0063 76.8682 18.6696 76.0649 20.1406C75.2616 21.6116 74.1084 22.8404 72.7173 23.7076C71.523 24.5304 70.1497 25.025 68.7243 25.1457C67.299 25.2664 65.8675 25.0094 64.5622 24.3983V33.7276C64.551 33.8041 64.5138 33.8737 64.4574 33.9238C64.401 33.9738 64.3293 34.0009 64.2553 34ZM62.1259 33.3579H63.9857V23.8146C63.9861 23.7596 64 23.7058 64.0261 23.6581C64.0521 23.6104 64.0894 23.5705 64.1344 23.5422C64.1808 23.5131 64.2338 23.4976 64.2878 23.4976C64.3419 23.4976 64.395 23.5131 64.4413 23.5422C65.8517 24.3763 67.4919 24.6817 69.0908 24.408C68.2086 24.3722 67.3476 24.1153 66.58 23.6589C65.6541 23.1188 64.8083 22.4404 64.0693 21.6452C64.015 21.5808 63.9852 21.4977 63.9857 21.4117V10.7107C63.968 10.6572 63.968 10.5989 63.9857 10.5454C63.9723 10.4911 63.9723 10.4342 63.9857 10.38V7.98686H62.1259V33.3579ZM64.5622 21.2853C65.2427 22.0011 66.0158 22.6135 66.859 23.1044C67.601 23.5426 68.4386 23.7728 69.2906 23.7728C70.1427 23.7728 70.9803 23.5426 71.7223 23.1044C73.4333 22.0538 74.3353 19.7579 74.3353 16.4698C74.3353 12.6564 72.3918 8.79426 68.6723 8.79426C67.8924 8.8204 67.1261 9.01549 66.4219 9.36712C65.7176 9.71874 65.0907 10.2193 64.5808 10.8372L64.5622 21.2853ZM68.6537 8.15222C72.7731 8.15222 74.9304 12.3353 74.9304 16.4698C75.0496 18.5607 74.5107 20.6348 73.3961 22.3748C74.4221 21.5233 75.2515 20.4409 75.823 19.2082C76.3945 17.9754 76.6933 16.6239 76.6972 15.2538C76.6972 11.0123 73.8518 7.68529 70.188 7.68529C69.2268 7.69672 68.2778 7.91179 67.3983 8.31759C67.815 8.20838 68.2428 8.15286 68.6723 8.15222H68.6537Z" fill="#333333"/>
<path d="M87.8465 22.404C87.409 23.016 86.85 23.5215 86.2079 23.8859C85.5658 24.2503 84.8559 24.465 84.127 24.515C81.9697 24.515 81.0398 23.1044 81.0398 19.8844V7.8409H77.4783V7.63659C78.2411 7.63138 78.9992 7.51014 79.7286 7.27665C80.5899 6.98923 81.37 6.48365 81.9994 5.80477C82.6289 5.1259 83.0882 4.29477 83.3366 3.38538H83.4389V7.58796H87.5025V7.79227H83.4296V19.7288C83.4296 22.1511 84.1642 23.4255 85.5218 23.4255C85.9445 23.3991 86.356 23.2724 86.7249 23.055C87.0939 22.8375 87.4106 22.535 87.6512 22.1705L87.8465 22.404Z" fill="#333333"/>
<path d="M84.1362 24.8361C81.7929 24.8361 80.7421 23.3088 80.7514 19.8844V8.16199H77.4968C77.4154 8.16199 77.3374 8.12815 77.2798 8.06794C77.2223 8.00774 77.1899 7.92609 77.1899 7.84095V7.63663C77.1909 7.58427 77.2042 7.53297 77.2285 7.48718C77.2528 7.4414 77.2875 7.40257 77.3294 7.37401C77.3777 7.33613 77.4365 7.31565 77.4968 7.31565C78.2278 7.31066 78.9543 7.19596 79.6542 6.97513C80.4605 6.71098 81.1926 6.24375 81.786 5.61446C82.3794 4.98517 82.816 4.2131 83.0575 3.36601C83.0741 3.29657 83.1124 3.23491 83.1663 3.19085C83.2202 3.14678 83.2867 3.12284 83.3551 3.1228H83.4667C83.5481 3.1228 83.6262 3.15659 83.6837 3.2168C83.7413 3.277 83.7736 3.35865 83.7736 3.44379V7.33506H87.4931C87.533 7.33504 87.5725 7.34345 87.6092 7.3597C87.6459 7.37595 87.6792 7.3997 87.7069 7.42965C87.7347 7.45959 87.7564 7.49507 87.7708 7.53397C87.7852 7.57287 87.7919 7.61442 87.7907 7.65611V7.86042C87.7919 7.90211 87.7852 7.9436 87.7708 7.9825C87.7564 8.0214 87.7347 8.05688 87.7069 8.08682C87.6792 8.11677 87.6459 8.14058 87.6092 8.15683C87.5725 8.17308 87.533 8.18143 87.4931 8.18141H83.7736V19.8552C83.7736 21.3923 84.0804 23.2309 85.5589 23.2309C85.9302 23.1975 86.2898 23.078 86.6115 22.8812C86.9331 22.6843 87.2089 22.415 87.4187 22.0928C87.4765 22.026 87.5562 21.9844 87.6419 21.976C87.6851 21.9736 87.7282 21.981 87.7684 21.9978C87.8085 22.0146 87.8447 22.0404 87.8744 22.0733L88.0418 22.2581C88.0941 22.3159 88.1232 22.3925 88.1232 22.4721C88.1232 22.5517 88.0941 22.6283 88.0418 22.6862C87.5709 23.3105 86.9799 23.8246 86.3071 24.1949C85.6344 24.5653 84.8948 24.7837 84.1362 24.8361ZM80.0633 7.53938H81.1048C81.1447 7.53936 81.1841 7.54771 81.2209 7.56396C81.2576 7.58021 81.2908 7.60402 81.3186 7.63396C81.3463 7.66391 81.368 7.69939 81.3824 7.73829C81.3968 7.77718 81.4036 7.81873 81.4024 7.86042V19.9039C81.4024 22.9683 82.2114 24.2232 84.192 24.2232C84.7476 24.2137 85.2941 24.0741 85.7914 23.8146H85.6055C84.6756 23.8146 83.2063 23.2893 83.2063 19.7969V7.84095C83.2011 7.80875 83.2011 7.77589 83.2063 7.74369C83.202 7.70817 83.202 7.67216 83.2063 7.63663V4.71818C82.5295 6.03395 81.4093 7.0395 80.0633 7.53938Z" fill="#333333"/>
<path d="M60.0427 17.6858C60.9171 16.3176 61.5473 14.7948 61.9025 13.1914C62.0513 12.3256 62.0513 10.6232 62.1164 10.6232C62.2683 11.6874 62.2683 12.7693 62.1164 13.8335C61.9633 15.1779 61.6152 16.49 61.0843 17.7247" fill="#333333"/>
<path d="M108.118 15.6137C107.78 17.1876 107.137 18.6725 106.231 19.9773C105.324 21.2822 104.172 22.3794 102.846 23.2017C101.425 24.131 99.7878 24.6356 98.1124 24.6609C96.5041 24.7152 94.9252 24.2012 93.6304 23.2017C91.845 21.7522 90.9802 19.3105 91.5102 16.1974C92.3285 11.3334 96.6153 7.05293 101.599 7.05293C106.165 7.05293 108.992 10.3994 108.118 15.6137ZM105.403 16.1585C106.119 11.9267 104.715 7.40313 101.153 7.40313C97.3685 7.40313 95.1274 10.6815 94.2905 15.6235C93.7977 18.5419 94.2905 21.6257 95.9736 23.2114C96.719 23.9321 97.7022 24.3226 98.7168 24.301C99.8649 24.3101 100.985 23.9276 101.906 23.2114C103.636 21.8884 104.854 19.4272 105.403 16.1585ZM98.1217 5.4575H97.6289L104.426 0L106.426 0.642034L98.1217 5.4575Z" fill="#333333"/>
<path d="M122.308 7.374L121.899 9.81578C120.799 9.53151 119.674 9.36848 118.542 9.32937C116.301 9.32937 114.609 11.6739 113.725 16.9271L113.418 18.7657C112.814 22.297 112.489 24.4372 112.489 24.4372H110.062C110.062 24.4372 110.685 20.546 110.926 19.1062C110.928 19.0738 110.928 19.0413 110.926 19.0089V18.7657L111.038 18.2987L112.898 7.36426H115.287L114.544 11.7517C116.822 9.12507 119.704 7.374 121.983 7.374H122.308Z" fill="#333333"/>
<path d="M10.1916 10.38C11.0031 10.38 11.6609 9.69185 11.6609 8.84296C11.6609 7.99407 11.0031 7.30591 10.1916 7.30591C9.38021 7.30591 8.72241 7.99407 8.72241 8.84296C8.72241 9.69185 9.38021 10.38 10.1916 10.38Z" fill="#333333"/>
<path d="M40.2084 11.5376C41.1174 11.5376 41.8543 10.7667 41.8543 9.81576C41.8543 8.86479 41.1174 8.09387 40.2084 8.09387C39.2994 8.09387 38.5625 8.86479 38.5625 9.81576C38.5625 10.7667 39.2994 11.5376 40.2084 11.5376Z" fill="#333333"/>
<path d="M122.029 9.82545C122.681 9.82545 123.21 9.27231 123.21 8.58997C123.21 7.90763 122.681 7.35449 122.029 7.35449C121.377 7.35449 120.848 7.90763 120.848 8.58997C120.848 9.27231 121.377 9.82545 122.029 9.82545Z" fill="#333333"/>
<path d="M116.171 29.1067H90.5151V30.2546H116.171V29.1067Z" fill="#333333"/>
</g>
<defs>
<clipPath id="clip0_1_189">
<rect width="173.461" height="34" fill="white"/>
</clipPath>
</defs>
</svg>
